<?xml version="1.0" encoding="utf-8"?>
<!-- Svg Vector Icons : http://www.onlinewebfonts.com/icon -->
<!DOCTYPE svg PUBLIC "-//W3C//DTD SVG 1.1//EN" "http://www.w3.org/Graphics/SVG/1.1/DTD/svg11.dtd">
<svg version="1.1" xmlns="http://www.w3.org/2000/svg" xmlns:xlink="http://www.w3.org/1999/xlink" x="0px" y="0px" viewBox="0 0 1000 1000" enable-background="new 0 0 1000 1000" xml:space="preserve" id="path12">
<metadata> Svg Vector Icons : http://www.onlinewebfonts.com/icon </metadata>
<g><g><g><path d="M223,504.9c-39.4,0.4-71.1,32.6-70.7,72.1c0,3.1,0.3,6,0.7,9c4.8,35.2,35,62.1,71.4,61.7c37.4-0.3,67.7-29.4,70.5-66c0.1-2,0.3-4,0.3-6.1C294.7,536.2,262.4,504.5,223,504.9z M217,532.1l0.2,20.5c-2.3,0.6-4.3,1.5-6.3,2.7l-14.7-14.4C202.2,536.3,209.3,533.2,217,532.1z M187.6,549.7l14.7,14.4c-1.1,2-2,4.1-2.5,6.3l-20.5,0.2C180.3,562.9,183.2,555.7,187.6,549.7z M179.3,583l20.7-0.2c0.6,2.2,1.5,4.3,2.6,6.2l-14.5,14.7C183.6,597.8,180.5,590.7,179.3,583z M197.1,612.3l14.4-14.7c1.9,1.1,4,1.9,6.2,2.4l0.2,20.6C210.1,619.7,203.1,616.7,197.1,612.3z M267.9,569.8l-20.5,0.2c-0.6-2.2-1.5-4.3-2.7-6.3l14.4-14.7C263.7,555,266.8,562,267.9,569.8z M229.4,531.9c7.8,1,14.9,4,20.9,8.4L235.9,555c-2-1.1-4.1-2-6.3-2.6L229.4,531.9z M230.2,620.6l-0.2-20.6c2.2-0.6,4.3-1.4,6.2-2.6l14.6,14.4C245,616.3,238,619.4,230.2,620.6z M259.6,603l-14.8-14.5c1.1-1.9,2-4,2.6-6.2l20.5-0.2C267,589.9,264.1,597.1,259.6,603z"/><path d="M799.4,504.9c-39.4,0.4-71.1,32.6-70.7,72.1c0,3.1,0.3,6,0.7,9c4.8,35.2,35,62.1,71.4,61.7c37.4-0.3,67.7-29.4,70.5-66c0.2-2,0.3-4,0.3-6.1C871.2,536.2,838.9,504.5,799.4,504.9z M793.5,532.1l0.2,20.5c-2.3,0.6-4.3,1.5-6.3,2.7l-14.7-14.4C778.7,536.3,785.7,533.2,793.5,532.1z M764.1,549.7l14.7,14.4c-1.1,2-2,4.1-2.5,6.3l-20.5,0.2C756.8,562.9,759.7,555.7,764.1,549.7z M755.8,583l20.7-0.2c0.6,2.2,1.5,4.3,2.7,6.2l-14.5,14.7C760.1,597.8,757,590.7,755.8,583z M773.6,612.3l14.4-14.7c1.9,1.1,4,1.9,6.2,2.4l0.2,20.6C786.6,619.7,779.5,616.7,773.6,612.3z M844.4,569.8l-20.5,0.2c-0.6-2.2-1.5-4.3-2.7-6.3l14.4-14.7C840.2,555,843.3,562,844.4,569.8z M805.9,531.9c7.8,1,14.9,4,20.9,8.4L812.4,555c-1.9-1.1-4.1-2-6.4-2.6L805.9,531.9z M806.7,620.6l-0.2-20.6c2.2-0.6,4.3-1.4,6.2-2.6l14.6,14.4C821.5,616.3,814.5,619.4,806.7,620.6z M836.1,603l-14.8-14.5c1.1-1.9,2-4,2.6-6.2l20.5-0.2C843.5,589.9,840.6,597.1,836.1,603z"/><path d="M988.7,428.4c-1.2-1.4-2.9-2.3-4.8-2.3h-63.1c-2.5,0-4.7,1.5-5.7,3.9l-4,10.3c0,0-178-64.9-217.7-78.7c-30.8-10.7-115.7-9.9-165.6-8.4c-24.6,0.8-49.2,5.8-72.1,15c-42,16.8-112.4,45.7-148.6,65c-86,1.8-166.6,21.4-184.5,30c-17.9,8.6-56.4,43.2-56.4,43.2L19.6,531c-6.4,3.4-10.1,10.2-9.6,17.3l2.8,37.7c0.6,8.4,7,15.3,15.3,16.5l111.1,16.8l9.1-0.4c-5.3-9.3-9-19.8-10.5-31c-0.5-3.8-0.8-7.4-0.8-10.9c-0.5-47.7,38-87,85.8-87.4c48.1,0,87,38.5,87.4,85.8c0,2.5-0.1,4.9-0.3,7.4c-0.8,10.5-3.6,20.6-7.9,29.7l419.1-0.9c-3.3-7.4-5.7-15.3-6.8-23.7c-0.5-3.8-0.8-7.4-0.8-10.9c-0.5-47.7,38-87,85.8-87.4c48.1,0,87,38.5,87.4,85.8c0,2.5-0.1,4.9-0.3,7.4c-0.4,5.6-1.4,11-2.8,16.2l3.9-0.3l75.4-22.6c6.9-2.1,11.9-8,12.8-15.1l6.7-56.2c0.8-7.1-0.6-14.2-4.2-20.4l-12.7-22l19.5-14.8c1.1-0.9,1.9-2.1,2.3-3.5l2.5-10.5C990.2,431.7,989.8,429.8,988.7,428.4z M649.7,438.7l-191.1,5.6c0,0,0-23.6-28.3-26.5l45.1-26.7c16.3-9.7,34.7-14.6,53.6-14.4c34.5,0.3,91.6,0.9,125.3,2.3c6,0.3,11.4,3.6,14.4,8.8c3,5.2,3,11.6,0.2,16.9C659.4,422.2,649.7,438.7,649.7,438.7z" id="path12"/></g></g><g></g><g></g><g></g><g></g><g></g><g></g><g></g><g></g><g></g><g></g><g></g><g></g><g></g><g></g><g></g></g>
</svg>